<mxfile host="65bd71144e">
    <diagram id="50kn_rInlpNeqUclht26" name="Page-1">
        <mxGraphModel dx="394" dy="587" grid="1" gridSize="10" guides="1" tooltips="1" connect="1" arrows="1" fold="1" page="1" pageScale="1" pageWidth="3300" pageHeight="4681" background="#FFFFFF" math="0" shadow="0">
            <root>
                <mxCell id="0"/>
                <mxCell id="1" parent="0"/>
                <mxCell id="6" value="" style="edgeStyle=none;html=1;strokeColor=#000000;" edge="1" parent="1" source="2" target="4">
                    <mxGeometry relative="1" as="geometry"/>
                </mxCell>
                <mxCell id="2" value="&lt;font color=&quot;#000000&quot; style=&quot;font-size: 8px;&quot;&gt;Start&lt;/font&gt;" style="html=1;dashed=0;whitespace=wrap;shape=mxgraph.dfd.start;fillColor=#dae8fc;strokeColor=none;rounded=1;fontSize=8;" parent="1" vertex="1">
                    <mxGeometry x="60" y="40" width="80" height="30" as="geometry"/>
                </mxCell>
                <mxCell id="39" style="edgeStyle=none;rounded=1;html=1;entryX=0.5;entryY=0;entryDx=0;entryDy=0;labelBackgroundColor=#FFFFFF;strokeColor=#000000;fontFamily=Helvetica;fontSize=8;fontColor=#000000;" edge="1" parent="1" source="4" target="8">
                    <mxGeometry relative="1" as="geometry"/>
                </mxCell>
                <mxCell id="4" value="&lt;font style=&quot;font-size: 8px;&quot;&gt;Create &lt;br&gt;dataframes,scenario,&lt;br&gt;clock&lt;/font&gt;" style="html=1;dashed=0;whitespace=wrap;fillColor=#dae8fc;strokeColor=none;fontColor=#000000;rounded=1;" parent="1" vertex="1">
                    <mxGeometry x="50" y="90" width="100" height="50" as="geometry"/>
                </mxCell>
                <mxCell id="45" style="edgeStyle=none;rounded=1;html=1;entryX=0.5;entryY=0;entryDx=0;entryDy=0;entryPerimeter=0;labelBackgroundColor=#FFFFFF;strokeColor=#000000;fontFamily=Helvetica;fontSize=8;fontColor=#000000;" edge="1" parent="1" source="8" target="43">
                    <mxGeometry relative="1" as="geometry"/>
                </mxCell>
                <mxCell id="8" value="&lt;span style=&quot;font-size: 8px;&quot;&gt;For&amp;nbsp; iteration in range&amp;nbsp;&lt;br&gt;of total iterations&lt;br&gt;&lt;/span&gt;" style="html=1;dashed=0;whitespace=wrap;fillColor=#dae8fc;strokeColor=none;fontColor=#000000;rounded=1;" vertex="1" parent="1">
                    <mxGeometry x="50" y="160" width="100" height="50" as="geometry"/>
                </mxCell>
                <mxCell id="16" style="edgeStyle=none;html=1;entryX=0.5;entryY=0;entryDx=0;entryDy=0;strokeColor=#000000;fontSize=8;fontColor=#000000;" edge="1" parent="1" source="9" target="10">
                    <mxGeometry relative="1" as="geometry"/>
                </mxCell>
                <mxCell id="9" value="&lt;span style=&quot;font-size: 8px;&quot;&gt;Write all blocks in the block &lt;br&gt;registry to Gantt chart&lt;br&gt;for the first iteration&lt;br&gt;&lt;/span&gt;" style="html=1;dashed=0;whitespace=wrap;fillColor=#dae8fc;strokeColor=none;fontColor=#000000;rounded=1;" vertex="1" parent="1">
                    <mxGeometry x="50" y="551" width="100" height="50" as="geometry"/>
                </mxCell>
                <mxCell id="82" style="edgeStyle=none;shape=connector;rounded=1;html=1;entryX=0.5;entryY=0;entryDx=0;entryDy=0;labelBackgroundColor=#FFFFFF;strokeColor=#000000;fontFamily=Helvetica;fontSize=8;fontColor=#000000;endArrow=classic;" edge="1" parent="1" source="10" target="77">
                    <mxGeometry relative="1" as="geometry"/>
                </mxCell>
                <mxCell id="10" value="&lt;span style=&quot;font-size: 8px;&quot;&gt;Write the total cost&lt;br&gt;of the scenario to the&amp;nbsp;&lt;br&gt;iteration list&lt;br&gt;&lt;/span&gt;" style="html=1;dashed=0;whitespace=wrap;fillColor=#dae8fc;strokeColor=none;fontColor=#000000;rounded=1;" vertex="1" parent="1">
                    <mxGeometry x="50" y="631" width="100" height="50" as="geometry"/>
                </mxCell>
                <mxCell id="33" style="edgeStyle=none;rounded=1;html=1;labelBackgroundColor=#FFFFFF;strokeColor=#000000;fontSize=8;fontColor=#000000;exitX=0;exitY=0.5;exitDx=0;exitDy=0;exitPerimeter=0;entryX=0;entryY=0.5;entryDx=0;entryDy=0;" edge="1" parent="1" source="43" target="9">
                    <mxGeometry relative="1" as="geometry">
                        <mxPoint x="100" y="369" as="sourcePoint"/>
                        <Array as="points">
                            <mxPoint x="30" y="265"/>
                            <mxPoint x="30" y="380"/>
                            <mxPoint x="30" y="500"/>
                            <mxPoint x="30" y="576"/>
                        </Array>
                    </mxGeometry>
                </mxCell>
                <mxCell id="34" value="&lt;span style=&quot;background-color: rgb(255, 255, 255);&quot;&gt;Yes&lt;/span&gt;" style="edgeLabel;html=1;align=center;verticalAlign=middle;resizable=0;points=[];fontSize=8;fontColor=#000000;" vertex="1" connectable="0" parent="33">
                    <mxGeometry x="0.2288" y="-1" relative="1" as="geometry">
                        <mxPoint as="offset"/>
                    </mxGeometry>
                </mxCell>
                <mxCell id="24" style="edgeStyle=none;html=1;entryX=0.5;entryY=0;entryDx=0;entryDy=0;entryPerimeter=0;strokeColor=#000000;fontSize=8;fontColor=#000000;" edge="1" parent="1" source="17" target="18">
                    <mxGeometry relative="1" as="geometry"/>
                </mxCell>
                <mxCell id="17" value="&lt;span style=&quot;font-size: 8px;&quot;&gt;For day in range&amp;nbsp;&lt;br&gt;of total days&lt;br&gt;&lt;/span&gt;" style="html=1;dashed=0;whitespace=wrap;fillColor=#dae8fc;strokeColor=none;fontColor=#000000;rounded=1;" vertex="1" parent="1">
                    <mxGeometry x="180" y="309" width="100" height="50" as="geometry"/>
                </mxCell>
                <mxCell id="25" style="edgeStyle=none;html=1;strokeColor=#000000;fontSize=8;fontColor=#000000;entryX=0.5;entryY=0;entryDx=0;entryDy=0;exitX=0;exitY=0.5;exitDx=0;exitDy=0;exitPerimeter=0;" edge="1" parent="1" source="18" target="9">
                    <mxGeometry relative="1" as="geometry">
                        <mxPoint x="230" y="471" as="targetPoint"/>
                        <Array as="points">
                            <mxPoint x="100" y="414"/>
                        </Array>
                    </mxGeometry>
                </mxCell>
                <mxCell id="26" value="&lt;span style=&quot;background-color: rgb(255, 255, 255);&quot;&gt;Yes&lt;/span&gt;" style="edgeLabel;html=1;align=center;verticalAlign=middle;resizable=0;points=[];fontSize=8;fontColor=#000000;rounded=1;" vertex="1" connectable="0" parent="25">
                    <mxGeometry x="0.0497" y="-1" relative="1" as="geometry">
                        <mxPoint as="offset"/>
                    </mxGeometry>
                </mxCell>
                <mxCell id="76" value="No" style="edgeStyle=none;shape=connector;rounded=1;html=1;entryX=0;entryY=0.5;entryDx=0;entryDy=0;labelBackgroundColor=#FFFFFF;strokeColor=#000000;fontFamily=Helvetica;fontSize=8;fontColor=#000000;endArrow=classic;" edge="1" parent="1" source="18" target="47">
                    <mxGeometry relative="1" as="geometry"/>
                </mxCell>
                <mxCell id="18" value="&lt;font color=&quot;#000000&quot;&gt;End of &lt;br&gt;range?&lt;/font&gt;" style="strokeWidth=2;html=1;shape=mxgraph.flowchart.decision;whiteSpace=wrap;fontSize=8;fillColor=#cce5ff;strokeColor=none;rounded=1;" vertex="1" parent="1">
                    <mxGeometry x="195" y="379" width="70" height="70" as="geometry"/>
                </mxCell>
                <mxCell id="46" style="edgeStyle=none;rounded=1;html=1;entryX=0.5;entryY=0;entryDx=0;entryDy=0;labelBackgroundColor=#FFFFFF;strokeColor=#000000;fontFamily=Helvetica;fontSize=8;fontColor=#000000;" edge="1" parent="1" source="38" target="17">
                    <mxGeometry relative="1" as="geometry"/>
                </mxCell>
                <mxCell id="38" value="&lt;span style=&quot;font-size: 8px;&quot;&gt;Create model&lt;br&gt;&lt;/span&gt;" style="html=1;dashed=0;whitespace=wrap;fillColor=#dae8fc;strokeColor=none;fontColor=#000000;rounded=1;" vertex="1" parent="1">
                    <mxGeometry x="180" y="240" width="100" height="50" as="geometry"/>
                </mxCell>
                <mxCell id="44" value="No" style="edgeStyle=none;rounded=1;html=1;entryX=0;entryY=0.5;entryDx=0;entryDy=0;labelBackgroundColor=#FFFFFF;strokeColor=#000000;fontFamily=Helvetica;fontSize=8;fontColor=#000000;" edge="1" parent="1" source="43" target="38">
                    <mxGeometry relative="1" as="geometry"/>
                </mxCell>
                <mxCell id="43" value="&lt;font color=&quot;#000000&quot;&gt;End of &lt;br&gt;range?&lt;/font&gt;" style="strokeWidth=2;html=1;shape=mxgraph.flowchart.decision;whiteSpace=wrap;fontSize=8;fillColor=#cce5ff;strokeColor=none;rounded=1;" vertex="1" parent="1">
                    <mxGeometry x="65" y="230" width="70" height="70" as="geometry"/>
                </mxCell>
                <mxCell id="64" style="edgeStyle=none;rounded=1;html=1;labelBackgroundColor=#FFFFFF;strokeColor=#000000;fontFamily=Helvetica;fontSize=8;fontColor=#000000;" edge="1" parent="1" source="47" target="48">
                    <mxGeometry relative="1" as="geometry"/>
                </mxCell>
                <mxCell id="47" value="Calculate total&lt;br style=&quot;font-size: 8px;&quot;&gt;accrued &lt;br style=&quot;font-size: 8px;&quot;&gt;cost of all blocks" style="html=1;dashed=0;whitespace=wrap;fillColor=#dae8fc;strokeColor=none;fontColor=#000000;rounded=1;fontSize=8;" vertex="1" parent="1">
                    <mxGeometry x="310" y="389" width="100" height="50" as="geometry"/>
                </mxCell>
                <mxCell id="65" style="edgeStyle=none;rounded=1;html=1;entryX=0.5;entryY=0;entryDx=0;entryDy=0;entryPerimeter=0;labelBackgroundColor=#FFFFFF;strokeColor=#000000;fontFamily=Helvetica;fontSize=8;fontColor=#000000;" edge="1" parent="1" source="48" target="50">
                    <mxGeometry relative="1" as="geometry"/>
                </mxCell>
                <mxCell id="48" value="Update all blocks in the&lt;br&gt;block registry" style="html=1;dashed=0;whitespace=wrap;fillColor=#dae8fc;strokeColor=none;fontColor=#000000;rounded=1;fontSize=8;" vertex="1" parent="1">
                    <mxGeometry x="310" y="471" width="100" height="50" as="geometry"/>
                </mxCell>
                <mxCell id="66" value="No" style="edgeStyle=none;rounded=1;html=1;entryX=0.5;entryY=0;entryDx=0;entryDy=0;labelBackgroundColor=#FFFFFF;strokeColor=#000000;fontFamily=Helvetica;fontSize=8;fontColor=#000000;" edge="1" parent="1" source="50" target="52">
                    <mxGeometry relative="1" as="geometry"/>
                </mxCell>
                <mxCell id="73" value="YES" style="edgeStyle=none;shape=connector;rounded=1;html=1;entryX=1;entryY=0.5;entryDx=0;entryDy=0;labelBackgroundColor=#FFFFFF;strokeColor=#000000;fontFamily=Helvetica;fontSize=8;fontColor=#000000;endArrow=classic;" edge="1" parent="1" source="50" target="51">
                    <mxGeometry relative="1" as="geometry"/>
                </mxCell>
                <mxCell id="50" value="&lt;font color=&quot;#000000&quot;&gt;Block failed (Iteration&lt;br&gt;status failed?)&lt;/font&gt;" style="strokeWidth=2;html=1;shape=mxgraph.flowchart.decision;whiteSpace=wrap;fontSize=8;fillColor=#cce5ff;strokeColor=none;rounded=1;" vertex="1" parent="1">
                    <mxGeometry x="325" y="541" width="70" height="70" as="geometry"/>
                </mxCell>
                <mxCell id="74" style="edgeStyle=none;shape=connector;rounded=1;html=1;entryX=1;entryY=0.5;entryDx=0;entryDy=0;labelBackgroundColor=#FFFFFF;strokeColor=#000000;fontFamily=Helvetica;fontSize=8;fontColor=#000000;endArrow=classic;" edge="1" parent="1" source="51" target="9">
                    <mxGeometry relative="1" as="geometry"/>
                </mxCell>
                <mxCell id="51" value="&lt;span style=&quot;font-size: 8px;&quot;&gt;Set scenario &lt;br&gt;status = FAILED&lt;br&gt;&lt;/span&gt;" style="html=1;dashed=0;whitespace=wrap;fillColor=#dae8fc;strokeColor=none;fontColor=#000000;rounded=1;" vertex="1" parent="1">
                    <mxGeometry x="180" y="551" width="100" height="50" as="geometry"/>
                </mxCell>
                <mxCell id="67" style="edgeStyle=none;rounded=1;html=1;entryX=0.5;entryY=0;entryDx=0;entryDy=0;labelBackgroundColor=#FFFFFF;strokeColor=#000000;fontFamily=Helvetica;fontSize=8;fontColor=#000000;" edge="1" parent="1" source="52" target="53">
                    <mxGeometry relative="1" as="geometry"/>
                </mxCell>
                <mxCell id="52" value="&lt;span style=&quot;font-size: 8px;&quot;&gt;Set scenario &lt;br&gt;status = Success&lt;br&gt;&lt;/span&gt;" style="html=1;dashed=0;whitespace=wrap;fillColor=#dae8fc;strokeColor=none;fontColor=#000000;rounded=1;" vertex="1" parent="1">
                    <mxGeometry x="310" y="640" width="100" height="50" as="geometry"/>
                </mxCell>
                <mxCell id="68" style="edgeStyle=none;rounded=1;html=1;entryX=0.5;entryY=0;entryDx=0;entryDy=0;labelBackgroundColor=#FFFFFF;strokeColor=#000000;fontFamily=Helvetica;fontSize=8;fontColor=#000000;" edge="1" parent="1" source="53" target="54">
                    <mxGeometry relative="1" as="geometry"/>
                </mxCell>
                <mxCell id="53" value="Calculate total&lt;br style=&quot;font-size: 8px;&quot;&gt;accrued &lt;br style=&quot;font-size: 8px;&quot;&gt;cost of all blocks" style="html=1;dashed=0;whitespace=wrap;fillColor=#dae8fc;strokeColor=none;fontColor=#000000;rounded=1;fontSize=8;" vertex="1" parent="1">
                    <mxGeometry x="310" y="710" width="100" height="50" as="geometry"/>
                </mxCell>
                <mxCell id="69" style="edgeStyle=none;rounded=1;html=1;entryX=0.5;entryY=0;entryDx=0;entryDy=0;labelBackgroundColor=#FFFFFF;strokeColor=#000000;fontFamily=Helvetica;fontSize=8;fontColor=#000000;" edge="1" parent="1" source="54" target="55">
                    <mxGeometry relative="1" as="geometry"/>
                </mxCell>
                <mxCell id="54" value="Calculate&amp;nbsp;&lt;br&gt;cashflow" style="html=1;dashed=0;whitespace=wrap;fillColor=#dae8fc;strokeColor=none;fontColor=#000000;rounded=1;fontSize=8;" vertex="1" parent="1">
                    <mxGeometry x="310" y="780" width="100" height="50" as="geometry"/>
                </mxCell>
                <mxCell id="70" style="edgeStyle=none;rounded=1;html=1;entryX=0.5;entryY=0;entryDx=0;entryDy=0;labelBackgroundColor=#FFFFFF;strokeColor=#000000;fontFamily=Helvetica;fontSize=8;fontColor=#000000;" edge="1" parent="1" source="55" target="58">
                    <mxGeometry relative="1" as="geometry"/>
                </mxCell>
                <mxCell id="55" value="Set scenario total&lt;br&gt;cost = total cost &lt;br&gt;+ cashflow" style="html=1;dashed=0;whitespace=wrap;fillColor=#dae8fc;strokeColor=none;fontColor=#000000;rounded=1;fontSize=8;" vertex="1" parent="1">
                    <mxGeometry x="310" y="850" width="100" height="50" as="geometry"/>
                </mxCell>
                <mxCell id="57" style="edgeStyle=none;rounded=1;html=1;labelBackgroundColor=#FFFFFF;strokeColor=#000000;fontSize=8;fontColor=#000000;" edge="1" parent="1" source="58" target="61">
                    <mxGeometry relative="1" as="geometry"/>
                </mxCell>
                <mxCell id="58" value="&lt;span style=&quot;font-size: 8px;&quot;&gt;Write daily cashflow list&lt;br&gt;to file&lt;br&gt;&lt;/span&gt;" style="html=1;dashed=0;whitespace=wrap;fillColor=#dae8fc;strokeColor=none;fontColor=#000000;rounded=1;" vertex="1" parent="1">
                    <mxGeometry x="310" y="930" width="100" height="50" as="geometry"/>
                </mxCell>
                <mxCell id="59" style="edgeStyle=none;rounded=1;html=1;labelBackgroundColor=#FFFFFF;strokeColor=#000000;fontSize=8;fontColor=#000000;" edge="1" parent="1" source="61" target="62">
                    <mxGeometry relative="1" as="geometry"/>
                </mxCell>
                <mxCell id="60" style="edgeStyle=none;rounded=1;html=1;entryX=0;entryY=0.5;entryDx=0;entryDy=0;labelBackgroundColor=#FFFFFF;strokeColor=#000000;fontSize=8;fontColor=#000000;" edge="1" parent="1" source="61" target="63">
                    <mxGeometry relative="1" as="geometry"/>
                </mxCell>
                <mxCell id="61" value="&lt;font color=&quot;#000000&quot;&gt;View iteration&lt;br&gt;progress?&lt;/font&gt;" style="strokeWidth=2;html=1;shape=mxgraph.flowchart.decision;whiteSpace=wrap;fontSize=8;fillColor=#cce5ff;strokeColor=none;rounded=1;" vertex="1" parent="1">
                    <mxGeometry x="325" y="1000" width="70" height="70" as="geometry"/>
                </mxCell>
                <mxCell id="62" value="&lt;span style=&quot;font-size: 8px;&quot;&gt;Write daily cashflow list&lt;br&gt;to file&lt;br&gt;&lt;/span&gt;" style="html=1;dashed=0;whitespace=wrap;fillColor=#dae8fc;strokeColor=none;fontColor=#000000;rounded=1;" vertex="1" parent="1">
                    <mxGeometry x="310" y="1090" width="100" height="50" as="geometry"/>
                </mxCell>
                <mxCell id="63" value="&lt;span style=&quot;font-size: 8px;&quot;&gt;Print&amp;nbsp; Scenario, iteration&lt;br&gt;and day to file&lt;br&gt;&lt;/span&gt;" style="html=1;dashed=0;whitespace=wrap;fillColor=#dae8fc;strokeColor=none;fontColor=#000000;rounded=1;" vertex="1" parent="1">
                    <mxGeometry x="440" y="1010" width="100" height="50" as="geometry"/>
                </mxCell>
                <mxCell id="83" style="edgeStyle=none;shape=connector;rounded=1;html=1;entryX=0.5;entryY=0;entryDx=0;entryDy=0;labelBackgroundColor=#FFFFFF;strokeColor=#000000;fontFamily=Helvetica;fontSize=8;fontColor=#000000;endArrow=classic;" edge="1" parent="1" source="77" target="78">
                    <mxGeometry relative="1" as="geometry"/>
                </mxCell>
                <mxCell id="77" value="&lt;span style=&quot;font-size: 8px;&quot;&gt;Create simulation &lt;br&gt;histogram&lt;br&gt;&lt;/span&gt;" style="html=1;dashed=0;whitespace=wrap;fillColor=#dae8fc;strokeColor=none;fontColor=#000000;rounded=1;" vertex="1" parent="1">
                    <mxGeometry x="50" y="700" width="100" height="50" as="geometry"/>
                </mxCell>
                <mxCell id="84" style="edgeStyle=none;shape=connector;rounded=1;html=1;entryX=0.5;entryY=0;entryDx=0;entryDy=0;labelBackgroundColor=#FFFFFF;strokeColor=#000000;fontFamily=Helvetica;fontSize=8;fontColor=#000000;endArrow=classic;" edge="1" parent="1" source="78" target="79">
                    <mxGeometry relative="1" as="geometry"/>
                </mxCell>
                <mxCell id="78" value="&lt;span style=&quot;font-size: 8px;&quot;&gt;Create Gantt&lt;br&gt;chart&lt;br&gt;&lt;/span&gt;" style="html=1;dashed=0;whitespace=wrap;fillColor=#dae8fc;strokeColor=none;fontColor=#000000;rounded=1;" vertex="1" parent="1">
                    <mxGeometry x="50" y="770" width="100" height="50" as="geometry"/>
                </mxCell>
                <mxCell id="85" style="edgeStyle=none;shape=connector;rounded=1;html=1;entryX=0.5;entryY=0;entryDx=0;entryDy=0;labelBackgroundColor=#FFFFFF;strokeColor=#000000;fontFamily=Helvetica;fontSize=8;fontColor=#000000;endArrow=classic;" edge="1" parent="1" source="79" target="80">
                    <mxGeometry relative="1" as="geometry"/>
                </mxCell>
                <mxCell id="79" value="&lt;span style=&quot;font-size: 8px;&quot;&gt;Create simulation&lt;br&gt;summary&lt;br&gt;&lt;/span&gt;" style="html=1;dashed=0;whitespace=wrap;fillColor=#dae8fc;strokeColor=none;fontColor=#000000;rounded=1;" vertex="1" parent="1">
                    <mxGeometry x="50" y="840" width="100" height="50" as="geometry"/>
                </mxCell>
                <mxCell id="86" style="edgeStyle=none;shape=connector;rounded=1;html=1;entryX=0.5;entryY=0;entryDx=0;entryDy=0;labelBackgroundColor=#FFFFFF;strokeColor=#000000;fontFamily=Helvetica;fontSize=8;fontColor=#000000;endArrow=classic;" edge="1" parent="1" source="80" target="81">
                    <mxGeometry relative="1" as="geometry"/>
                </mxCell>
                <mxCell id="80" value="&lt;span style=&quot;font-size: 8px;&quot;&gt;Create cashflow&lt;br&gt;chart&lt;br&gt;&lt;/span&gt;" style="html=1;dashed=0;whitespace=wrap;fillColor=#dae8fc;strokeColor=none;fontColor=#000000;rounded=1;" vertex="1" parent="1">
                    <mxGeometry x="50" y="910" width="100" height="50" as="geometry"/>
                </mxCell>
                <mxCell id="81" value="&lt;span style=&quot;font-size: 8px;&quot;&gt;Write iteration list to&lt;br&gt;file&lt;br&gt;&lt;/span&gt;" style="html=1;dashed=0;whitespace=wrap;fillColor=#dae8fc;strokeColor=none;fontColor=#000000;rounded=1;" vertex="1" parent="1">
                    <mxGeometry x="50" y="980" width="100" height="50" as="geometry"/>
                </mxCell>
            </root>
        </mxGraphModel>
    </diagram>
</mxfile>